<?xml version="1.0" standalone="no"?>
<!DOCTYPE svg PUBLIC "-//W3C//DTD SVG 20010904//EN"
 "http://www.w3.org/TR/2001/REC-SVG-20010904/DTD/svg10.dtd">
<svg version="1.0" xmlns="http://www.w3.org/2000/svg"
 width="350.000000pt" height="350.000000pt" viewBox="0 0 350.000000 350.000000"
 preserveAspectRatio="xMidYMid meet">
<metadata>
Created by potrace 1.11, written by Peter Selinger 2001-2013
</metadata>
<g transform="translate(0.000000,350.000000) scale(0.100000,-0.100000)"
fill="#000000" stroke="none">
<path d="M949 2846 c-2 -2 -35 -7 -74 -10 -38 -3 -81 -8 -95 -11 -14 -3 -35
-8 -46 -10 -50 -11 -184 -74 -184 -87 0 -5 -5 -8 -10 -8 -14 0 -100 -86 -100
-100 0 -5 -4 -10 -9 -10 -12 0 -58 -106 -71 -165 -19 -83 -13 -252 11 -296 4
-9 6 -18 4 -21 -5 -5 72 -159 83 -168 4 -3 19 -21 34 -42 34 -45 138 -150 203
-203 55 -46 99 -83 124 -105 9 -8 34 -28 56 -44 38 -29 165 -154 195 -192 24
-30 80 -124 75 -124 -3 0 -1 -8 4 -19 26 -47 33 -180 15 -252 -35 -137 -155
-250 -290 -274 -49 -9 -167 -9 -217 0 -171 30 -303 166 -312 322 -4 81 -13
107 -29 94 -7 -6 -15 -9 -18 -6 -2 3 -5 -1 -5 -7 -1 -7 -4 -62 -8 -123 -4 -60
-8 -150 -8 -198 0 -76 2 -91 20 -109 18 -18 95 -52 143 -63 8 -2 26 -6 40 -9
58 -14 91 -17 190 -21 241 -8 415 51 549 186 123 124 182 290 166 472 -4 45
-7 88 -8 95 0 6 -4 12 -9 12 -5 0 -6 5 -2 11 3 6 1 23 -6 37 -63 135 -112 205
-215 307 -80 78 -132 125 -140 125 -3 0 -16 10 -29 23 -31 29 -65 57 -71 57
-2 0 -15 10 -28 23 -13 12 -39 33 -57 47 -32 24 -190 178 -216 210 -6 8 -22
40 -35 70 -33 77 -33 213 0 284 56 119 178 188 331 187 41 -1 86 -3 100 -6 14
-4 36 -8 50 -11 42 -8 90 -28 90 -36 0 -4 5 -8 10 -8 12 0 29 -13 65 -50 24
-24 56 -103 60 -145 6 -65 34 -97 50 -57 4 9 9 88 10 175 2 87 6 161 9 164 13
13 -16 43 -42 42 -26 -1 -55 4 -112 17 -41 10 -62 13 -122 18 -32 2 -62 7 -67
10 -5 4 -13 2 -16 -4 -5 -8 -11 -8 -19 -1 -7 6 -15 9 -17 7z"/>
<path d="M1955 2805 c-5 -2 -22 -6 -37 -9 -25 -6 -41 -35 -20 -37 4 0 16 -2
27 -4 11 -2 42 -7 69 -10 99 -11 133 -52 139 -167 1 -27 6 -48 10 -48 4 0 4
-8 0 -17 -10 -21 -9 -65 1 -82 4 -6 2 -11 -4 -11 -8 0 -8 -6 0 -21 8 -14 8
-24 1 -33 -6 -7 -8 -15 -5 -19 8 -8 9 -105 1 -113 -4 -4 -2 -13 4 -21 9 -10 8
-13 0 -13 -7 0 -9 -5 -6 -10 6 -10 9 -88 5 -115 -2 -11 -1 -89 2 -152 1 -24 0
-45 -3 -47 -2 -3 -2 -37 1 -76 3 -40 2 -74 -2 -77 -5 -2 -6 -9 -2 -14 8 -14 9
-103 0 -117 -4 -7 -2 -12 5 -12 8 0 9 -3 0 -13 -6 -8 -8 -16 -5 -20 5 -5 8
-87 4 -112 -1 -9 -1 -52 1 -150 0 -22 0 -42 0 -45 -1 -3 -3 -88 -6 -190 -3
-102 -7 -198 -9 -215 -12 -74 -18 -100 -27 -103 -5 -2 -9 -10 -9 -17 0 -19
-48 -40 -100 -44 -55 -4 -62 -8 -51 -29 8 -15 41 -17 363 -17 346 0 353 0 353
20 0 18 -9 21 -71 26 -39 4 -82 10 -95 14 -34 10 -67 43 -74 74 -3 14 -8 37
-11 51 -3 14 -7 45 -10 70 -9 75 -11 1763 -3 1786 4 12 20 26 36 31 32 11 189
10 248 -1 176 -33 343 -200 381 -381 25 -119 26 -223 2 -309 -20 -73 -62 -156
-78 -156 -6 0 -10 -4 -10 -10 0 -22 -96 -99 -160 -127 -57 -26 -104 -40 -154
-48 -21 -3 -43 -8 -49 -12 -5 -3 -8 -2 -4 3 8 13 -81 4 -92 -10 -6 -6 -6 -18
-1 -25 16 -27 224 -16 325 16 11 4 25 8 30 9 19 3 149 69 168 84 10 8 48 44
85 80 97 94 172 245 176 353 0 9 3 17 6 17 3 0 5 46 4 103 -1 133 -27 209
-103 310 -36 48 -139 124 -196 144 -16 6 -39 14 -50 19 -22 8 -27 9 -70 19
-83 18 -343 37 -350 25 -4 -7 -548 -5 -561 2 -5 3 -13 4 -19 3z"/>
</g>
</svg>
