<?xml version="1.0" standalone="no"?>
<!DOCTYPE svg PUBLIC "-//W3C//DTD SVG 20010904//EN"
 "http://www.w3.org/TR/2001/REC-SVG-20010904/DTD/svg10.dtd">
<svg version="1.0" xmlns="http://www.w3.org/2000/svg"
 width="330.000000pt" height="330.000000pt" viewBox="0 0 330.000000 330.000000"
 preserveAspectRatio="xMidYMid meet">
<metadata>
Created by potrace 1.14, written by Peter Selinger 2001-2017
</metadata>
<g transform="translate(0.000000,330.000000) scale(0.100000,-0.100000)"
fill="#000000" stroke="none">
<path d="M0 1650 l0 -1650 1650 0 1650 0 0 1650 0 1650 -1650 0 -1650 0 0
-1650z m1170 1023 c81 -20 159 -54 183 -81 15 -17 20 -49 28 -191 12 -207 5
-251 -41 -251 -35 0 -36 1 -82 124 -64 168 -128 265 -202 303 -17 9 -65 18
-106 21 -136 7 -234 -48 -292 -166 -31 -62 -33 -74 -33 -167 0 -89 3 -106 28
-157 39 -80 111 -140 283 -238 216 -123 291 -175 374 -259 83 -84 138 -180
167 -291 25 -99 23 -293 -5 -393 -88 -313 -319 -487 -648 -487 -238 0 -407 68
-461 186 -24 52 -24 58 -21 264 3 198 5 211 25 231 23 24 57 19 68 -8 3 -10
14 -60 25 -113 44 -226 129 -354 286 -427 49 -23 72 -28 139 -28 68 0 89 5
140 29 146 72 222 212 213 393 -3 68 -10 101 -31 148 -64 138 -154 219 -417
375 -172 102 -253 165 -309 238 -129 170 -148 460 -46 669 62 125 197 235 335
274 109 30 278 31 400 2z m1130 -46 c249 -3 304 -6 350 -21 219 -71 328 -214
361 -471 20 -162 3 -293 -56 -420 -79 -170 -195 -270 -344 -296 -73 -13 -129
-3 -253 47 -48 20 -95 33 -103 30 -14 -5 -15 -56 -13 -412 l3 -406 32 -28 c22
-20 47 -30 80 -35 76 -9 97 -18 107 -47 8 -22 6 -32 -10 -49 -18 -21 -24 -21
-124 -13 -135 11 -366 11 -500 0 -116 -10 -132 -3 -132 50 -1 36 11 44 73 51
75 8 124 35 138 74 8 23 11 291 11 906 l0 875 -28 28 c-18 17 -44 31 -68 35
-21 3 -53 8 -70 11 -43 6 -60 28 -48 62 12 34 30 37 177 35 67 -2 255 -4 417
-6z"/>
<path d="M2293 2514 c-56 -28 -58 -47 -58 -466 0 -367 1 -377 21 -405 35 -47
82 -68 149 -68 71 1 108 18 165 78 48 49 83 117 105 202 20 78 20 250 1 345
-30 141 -110 266 -199 309 -52 25 -138 27 -184 5z"/>
</g>
</svg>
